<svg xmlns="http://www.w3.org/2000/svg" width="512" height="512" viewBox="0 0 512 512">
  <defs>
    <linearGradient id="greenGradient" x1="0%" y1="0%" x2="100%" y2="100%">
      <stop offset="0%" style="stop-color:#10B981;stop-opacity:1" />
      <stop offset="100%" style="stop-color:#059669;stop-opacity:1" />
    </linearGradient>
    <linearGradient id="goldGradient" x1="0%" y1="100%" x2="100%" y2="0%">
      <stop offset="0%" style="stop-color:#F59E0B;stop-opacity:1" />
      <stop offset="100%" style="stop-color:#FBBF24;stop-opacity:1" />
    </linearGradient>
  </defs>
  
  <!-- Background with rounded corners -->
  <rect width="512" height="512" rx="80" ry="80" fill="#0F172A"/>
  
  <!-- Letter F in green gradient -->
  <g transform="translate(256, 256)">
    <!-- F letter -->
    <path d="M -100 -120 L 60 -120 L 60 -80 L -50 -80 L -50 -20 L 40 -20 L 40 20 L -50 20 L -50 120 L -100 120 Z" fill="url(#greenGradient)"/>
    
    <!-- Upward trending chart line in gold -->
    <path d="M -80 60 L -40 30 L 0 40 L 40 -10 L 80 -50 L 100 -70" 
          stroke="url(#goldGradient)" 
          stroke-width="12" 
          stroke-linecap="round" 
          stroke-linejoin="round" 
          fill="none"/>
    
    <!-- Arrow tip -->
    <path d="M 100 -70 L 70 -60 L 90 -50 Z" fill="url(#goldGradient)"/>
    
    <!-- Data points on the chart -->
    <circle cx="-80" cy="60" r="6" fill="#FBBF24"/>
    <circle cx="-40" cy="30" r="6" fill="#FBBF24"/>
    <circle cx="0" cy="40" r="6" fill="#FBBF24"/>
    <circle cx="40" cy="-10" r="6" fill="#FBBF24"/>
    <circle cx="80" cy="-50" r="6" fill="#FBBF24"/>
    
    <!-- AI circuit elements -->
    <g opacity="0.6">
      <!-- Small circuit lines -->
      <path d="M -110 -40 L -120 -40 L -120 -60" stroke="#10B981" stroke-width="2" fill="none"/>
      <circle cx="-120" cy="-40" r="3" fill="#10B981"/>
      <circle cx="-120" cy="-60" r="3" fill="#10B981"/>
      
      <path d="M -110 0 L -130 0 L -130 20" stroke="#10B981" stroke-width="2" fill="none"/>
      <circle cx="-130" cy="0" r="3" fill="#10B981"/>
      <circle cx="-130" cy="20" r="3" fill="#10B981"/>
      
      <!-- Microchip symbol -->
      <rect x="30" y="80" width="20" height="20" fill="#F59E0B" opacity="0.8"/>
      <line x1="35" y1="80" x2="35" y2="75" stroke="#F59E0B" stroke-width="2"/>
      <line x1="45" y1="80" x2="45" y2="75" stroke="#F59E0B" stroke-width="2"/>
      <line x1="35" y1="100" x2="35" y2="105" stroke="#F59E0B" stroke-width="2"/>
      <line x1="45" y1="100" x2="45" y2="105" stroke="#F59E0B" stroke-width="2"/>
    </g>
  </g>
</svg>
